Kissing Cousins (2010) [BluRay 1080p]
 
http://www.excaliburfilms.com/AdultDVD/826949D1_Kissing_Cousins_-_DVD___Blu-Ray_Combo_Pack_dvd.htm 
http://www.sugardvd.com/browse/dvd/details/194421/?refaff=13335 
http://www.bargainadultdvd.com/action/product.asp?product=1556288&partner_id=10008495

Studio 	Digital Playground
Release Date Dec 30, 2010
Category HD - Shot In High Def, Feature, Blu-ray
Director Robby D
Starring Raven Alexis, Alexia Rae, Sasha Heart, Tommy Gunn, Manuel Ferrara, Scott Nails

Sara and chris are a monogamous married couple. They're both become victims of the daily grind, and somehow, their sex has become... typical. Sara's cousin Jessica comes for a visit, and suddenly, things are turned upside down. As Jessica ...    Full Descriptionfucks and sucks her way around the neighborhood, a fire begins ti burn within Sara, a fire that hasn't been allowed to breathe for years. Sara is forced to confront her past face, as years of tamed desire and yearning flow freely once again.   

===========
<<<<.:.>>>>
===========

General:
Full name: restless-kc1080p.mkv
Format: Matroska
File size: 6.56 GiB
Runtime: 1h 31min
total bit rate: 10.2 Mbps
coded date: 1/1/2011 9:13:18 UTC
Writing application: mkvmerge v4.4.0 ('The Return') built on October 31, 2010 21:52:48
Writing library: libebml libmatroska v1.0.0 + v1.0.0

Video
ID: 1
Format: AVC
Format / Info: Advanced Video Codec
Format profile: High@L4.1
Format settings, CABAC: Yes
Format settings restatements: 4 photos
Format_Settings_GOP: M = 4, N = 16
Codec ID: V_MPEG4/ISO/AVC
Runtime: 1h 31min
Bit rate: 9603 Kbps
Width: 1920 pixels
Height: 1080 pixels
Aspect ratio: 16:9
Frame rate: 23.976 fps
Color Space: YUV
ChromaSubsampling: 4:02:00
Bitdepth / Chain: 8 bits
Scan type: Progressive
Bits / (Pixel * Frame): 0.193
Stream size: 6.02 GiB (92%)
Writing library: x264 core 112 a51816a r1834
Encoding settings: CABAC = 1 / ref = 4 / Deblock = = 1:00:00 / analysis 0x3: 0x133 / me = umh / submenu = 7 / psi = 1 / psy_rd = 1.00:0.00 / mixed_ref = 1 / me_range = 16 / chroma_me = 1 / trellis = 1 / 8x8dct = 1 / CQM = 0 / deadzone = 21.11 / fast_pskip = 0 / =- chroma_qp_offset 2 / threads = 12 / sliced_threads = 0 / nr = 0 / decimate = 1 / interlace = 0 / constrained_intra = 0 / bframe = 3 / b_pyramid = 2 / b_adapt = 1 / b_bias = 0 / direct = 1 / Weight = = 1 / open_gop = 0 / weightp = 2 / keyint 250 / keyint_min = 23 / scenecut = 40 / intra_refresh = 0 / rc_lookahead = 40 / rc = 2pass / mbtree = 1 / bitrate = 9603 / ratetol = 1.0 / 0.60 qcomp / qpmin = 10 / qpmax = 51 / qpstep = 4 / cplxblur = 20.0 / qblur = 0.5 / 1.40 = ip_ratio / aq = 1:1.00
Language: English

Audio
ID: 2
Format: AC-3
Format / Info: Audio Coding 3
Format_Settings_ModeExtension: CM (complete core)
Codec ID: A_AC3
Runtime: 1h 31min
Bit rate mode: Constant
Quality: 640 Kbps
Channels: 6 channels
Channel positions: Front: LCR, side: LR, LFE
Sampling frequency: 48.0 kHz
Bitdepth / String: 16 bits
Stream size: 420 MiB (6%)
Language: English